<mxfile host="65bd71144e">
    <diagram id="VVkQgHlS9ZEamelWMMdf" name="Тело основной программы">
        <mxGraphModel dx="828" dy="419" grid="1" gridSize="10" guides="1" tooltips="1" connect="1" arrows="1" fold="1" page="1" pageScale="1" pageWidth="827" pageHeight="1169" math="0" shadow="0">
            <root>
                <mxCell id="0"/>
                <mxCell id="1" parent="0"/>
                <mxCell id="2" value="Тело основной программы" style="text;strokeColor=none;fillColor=none;html=1;fontSize=16;fontStyle=1;verticalAlign=middle;align=center;strokeWidth=1;" vertex="1" parent="1">
                    <mxGeometry x="220" y="10" width="340" height="40" as="geometry"/>
                </mxCell>
                <mxCell id="5" style="edgeStyle=none;html=1;entryX=0.5;entryY=0;entryDx=0;entryDy=0;fontSize=16;" edge="1" parent="1" source="3" target="4">
                    <mxGeometry relative="1" as="geometry"/>
                </mxCell>
                <mxCell id="3" value="Начало" style="ellipse;whiteSpace=wrap;html=1;" vertex="1" parent="1">
                    <mxGeometry x="280" y="60" width="230" height="80" as="geometry"/>
                </mxCell>
                <mxCell id="7" style="edgeStyle=none;html=1;entryX=0.5;entryY=0;entryDx=0;entryDy=0;fontSize=12;" edge="1" parent="1" source="4" target="6">
                    <mxGeometry relative="1" as="geometry"/>
                </mxCell>
                <mxCell id="4" value="size" style="shape=parallelogram;perimeter=parallelogramPerimeter;whiteSpace=wrap;html=1;fixedSize=1;fontSize=12;strokeWidth=1;" vertex="1" parent="1">
                    <mxGeometry x="280" y="180" width="230" height="60" as="geometry"/>
                </mxCell>
                <mxCell id="6" value="size &amp;gt; 0" style="rhombus;whiteSpace=wrap;html=1;fontSize=12;strokeWidth=1;" vertex="1" parent="1">
                    <mxGeometry x="280" y="290" width="230" height="80" as="geometry"/>
                </mxCell>
                <mxCell id="8" value="" style="endArrow=none;html=1;fontSize=12;" edge="1" parent="1">
                    <mxGeometry width="50" height="50" relative="1" as="geometry">
                        <mxPoint x="200" y="330" as="sourcePoint"/>
                        <mxPoint x="280" y="329.58" as="targetPoint"/>
                    </mxGeometry>
                </mxCell>
                <mxCell id="9" value="" style="endArrow=none;html=1;fontSize=12;" edge="1" parent="1">
                    <mxGeometry width="50" height="50" relative="1" as="geometry">
                        <mxPoint x="510" y="330" as="sourcePoint"/>
                        <mxPoint x="590" y="329.5799999999999" as="targetPoint"/>
                    </mxGeometry>
                </mxCell>
                <mxCell id="10" value="" style="endArrow=classic;html=1;fontSize=12;" edge="1" parent="1">
                    <mxGeometry width="50" height="50" relative="1" as="geometry">
                        <mxPoint x="200" y="330" as="sourcePoint"/>
                        <mxPoint x="200" y="400" as="targetPoint"/>
                    </mxGeometry>
                </mxCell>
                <mxCell id="11" value="" style="endArrow=classic;html=1;fontSize=12;" edge="1" parent="1">
                    <mxGeometry width="50" height="50" relative="1" as="geometry">
                        <mxPoint x="590" y="330" as="sourcePoint"/>
                        <mxPoint x="590" y="399.9999999999999" as="targetPoint"/>
                    </mxGeometry>
                </mxCell>
                <mxCell id="12" value="Да" style="text;strokeColor=none;fillColor=none;html=1;fontSize=12;fontStyle=1;verticalAlign=middle;align=center;strokeWidth=1;" vertex="1" parent="1">
                    <mxGeometry x="214" y="290" width="66" height="40" as="geometry"/>
                </mxCell>
                <mxCell id="13" value="Нет" style="text;strokeColor=none;fillColor=none;html=1;fontSize=12;fontStyle=1;verticalAlign=middle;align=center;strokeWidth=1;" vertex="1" parent="1">
                    <mxGeometry x="520" y="290" width="66" height="40" as="geometry"/>
                </mxCell>
                <mxCell id="16" style="edgeStyle=none;html=1;fontSize=12;fontColor=#D4D4D4;" edge="1" parent="1" source="14">
                    <mxGeometry relative="1" as="geometry">
                        <mxPoint x="200" y="620" as="targetPoint"/>
                    </mxGeometry>
                </mxCell>
                <mxCell id="14" value="&lt;div style=&quot;line-height: 22px;&quot;&gt;&lt;font color=&quot;#d4d4d4&quot;&gt;newArray =&amp;nbsp;function&amp;nbsp;NewArray&lt;/font&gt;&lt;/div&gt;" style="rounded=1;whiteSpace=wrap;html=1;fontSize=12;strokeWidth=1;fontFamily=Helvetica;" vertex="1" parent="1">
                    <mxGeometry x="85" y="400" width="230" height="60" as="geometry"/>
                </mxCell>
                <mxCell id="30" style="edgeStyle=none;html=1;fontFamily=Helvetica;fontSize=12;fontColor=#D4D4D4;" edge="1" parent="1" source="15" target="29">
                    <mxGeometry relative="1" as="geometry"/>
                </mxCell>
                <mxCell id="15" value="function PrintArray (newArray)" style="shape=document;whiteSpace=wrap;html=1;boundedLbl=1;fontSize=12;fontColor=#D4D4D4;strokeWidth=1;fontFamily=Helvetica;" vertex="1" parent="1">
                    <mxGeometry x="87" y="624" width="225" height="80" as="geometry"/>
                </mxCell>
                <mxCell id="17" value="size = 0" style="rhombus;whiteSpace=wrap;html=1;fontSize=12;strokeWidth=1;" vertex="1" parent="1">
                    <mxGeometry x="475" y="400" width="230" height="80" as="geometry"/>
                </mxCell>
                <mxCell id="18" value="" style="endArrow=none;html=1;fontSize=12;" edge="1" parent="1">
                    <mxGeometry width="50" height="50" relative="1" as="geometry">
                        <mxPoint x="400" y="440" as="sourcePoint"/>
                        <mxPoint x="475" y="439.5799999999999" as="targetPoint"/>
                    </mxGeometry>
                </mxCell>
                <mxCell id="19" value="" style="endArrow=none;html=1;fontSize=12;" edge="1" parent="1">
                    <mxGeometry width="50" height="50" relative="1" as="geometry">
                        <mxPoint x="705" y="440" as="sourcePoint"/>
                        <mxPoint x="785" y="439.5799999999999" as="targetPoint"/>
                    </mxGeometry>
                </mxCell>
                <mxCell id="20" value="" style="endArrow=classic;html=1;fontSize=12;" edge="1" parent="1">
                    <mxGeometry width="50" height="50" relative="1" as="geometry">
                        <mxPoint x="400" y="440" as="sourcePoint"/>
                        <mxPoint x="400" y="500" as="targetPoint"/>
                    </mxGeometry>
                </mxCell>
                <mxCell id="22" value="Да" style="text;strokeColor=none;fillColor=none;html=1;fontSize=12;fontStyle=1;verticalAlign=middle;align=center;strokeWidth=1;" vertex="1" parent="1">
                    <mxGeometry x="409" y="400" width="66" height="40" as="geometry"/>
                </mxCell>
                <mxCell id="23" value="Нет" style="text;strokeColor=none;fillColor=none;html=1;fontSize=12;fontStyle=1;verticalAlign=middle;align=center;strokeWidth=1;" vertex="1" parent="1">
                    <mxGeometry x="715" y="400" width="66" height="40" as="geometry"/>
                </mxCell>
                <mxCell id="24" value="&lt;span&gt;newArray =&amp;nbsp;&lt;/span&gt;&lt;font style=&quot;font-size: 12px&quot;&gt;&lt;span style=&quot;font-family: consolas, &amp;quot;courier new&amp;quot;, monospace;&quot;&gt;{&lt;/span&gt;&lt;span style=&quot;font-family: &amp;quot;consolas&amp;quot; , &amp;quot;courier new&amp;quot; , monospace&quot;&gt;&quot;Hello&quot;&lt;/span&gt;&lt;span style=&quot;font-family: consolas, &amp;quot;courier new&amp;quot;, monospace;&quot;&gt;, &lt;/span&gt;&lt;span style=&quot;font-family: &amp;quot;consolas&amp;quot; , &amp;quot;courier new&amp;quot; , monospace&quot;&gt;&quot;2&quot;&lt;/span&gt;&lt;span style=&quot;font-family: consolas, &amp;quot;courier new&amp;quot;, monospace;&quot;&gt;, &lt;/span&gt;&lt;span style=&quot;font-family: &amp;quot;consolas&amp;quot; , &amp;quot;courier new&amp;quot; , monospace&quot;&gt;&quot;world&quot;&lt;/span&gt;&lt;span style=&quot;font-family: consolas, &amp;quot;courier new&amp;quot;, monospace;&quot;&gt;, &lt;/span&gt;&lt;span style=&quot;font-family: &amp;quot;consolas&amp;quot; , &amp;quot;courier new&amp;quot; , monospace&quot;&gt;&quot;:-)&quot;&lt;/span&gt;&lt;span style=&quot;font-family: consolas, &amp;quot;courier new&amp;quot;, monospace;&quot;&gt;, &lt;/span&gt;&lt;span style=&quot;font-family: &amp;quot;consolas&amp;quot; , &amp;quot;courier new&amp;quot; , monospace&quot;&gt;&quot;1234&quot;&lt;/span&gt;&lt;span style=&quot;font-family: consolas, &amp;quot;courier new&amp;quot;, monospace;&quot;&gt;, &lt;/span&gt;&lt;span style=&quot;font-family: &amp;quot;consolas&amp;quot; , &amp;quot;courier new&amp;quot; , monospace&quot;&gt;&quot;1567&quot;&lt;/span&gt;&lt;span style=&quot;font-family: consolas, &amp;quot;courier new&amp;quot;, monospace;&quot;&gt;, &lt;/span&gt;&lt;span style=&quot;font-family: &amp;quot;consolas&amp;quot; , &amp;quot;courier new&amp;quot; , monospace&quot;&gt;&quot;-2&quot;&lt;/span&gt;&lt;span style=&quot;font-family: consolas, &amp;quot;courier new&amp;quot;, monospace;&quot;&gt;, &lt;/span&gt;&lt;span style=&quot;font-family: &amp;quot;consolas&amp;quot; , &amp;quot;courier new&amp;quot; , monospace&quot;&gt;&quot;computer science&quot;&lt;/span&gt;&lt;span style=&quot;font-family: consolas, &amp;quot;courier new&amp;quot;, monospace;&quot;&gt;, &lt;/span&gt;&lt;span style=&quot;font-family: &amp;quot;consolas&amp;quot; , &amp;quot;courier new&amp;quot; , monospace&quot;&gt;&quot;Russia&quot;&lt;/span&gt;&lt;span style=&quot;font-family: consolas, &amp;quot;courier new&amp;quot;, monospace;&quot;&gt;, &lt;/span&gt;&lt;span style=&quot;font-family: &amp;quot;consolas&amp;quot; , &amp;quot;courier new&amp;quot; , monospace&quot;&gt;&quot;Denmark&quot;&lt;/span&gt;&lt;span style=&quot;font-family: consolas, &amp;quot;courier new&amp;quot;, monospace;&quot;&gt;, &lt;/span&gt;&lt;span style=&quot;font-family: &amp;quot;consolas&amp;quot; , &amp;quot;courier new&amp;quot; , monospace&quot;&gt;&quot;Kazan&quot;&lt;/span&gt;&lt;span style=&quot;font-family: consolas, &amp;quot;courier new&amp;quot;, monospace;&quot;&gt;, &lt;/span&gt;&lt;span style=&quot;font-family: &amp;quot;consolas&amp;quot; , &amp;quot;courier new&amp;quot; , monospace&quot;&gt;&quot;С#&quot;&lt;/span&gt;&lt;span style=&quot;font-family: consolas, &amp;quot;courier new&amp;quot;, monospace;&quot;&gt;}&lt;/span&gt;&lt;/font&gt;" style="rounded=0;whiteSpace=wrap;html=1;labelBackgroundColor=none;fontSize=12;fontColor=#D4D4D4;strokeWidth=1;" vertex="1" parent="1">
                    <mxGeometry x="282.5" y="503" width="235" height="60" as="geometry"/>
                </mxCell>
                <mxCell id="25" value="" style="endArrow=none;html=1;fontFamily=Helvetica;fontSize=12;fontColor=#D4D4D4;" edge="1" parent="1">
                    <mxGeometry width="50" height="50" relative="1" as="geometry">
                        <mxPoint x="400" y="600" as="sourcePoint"/>
                        <mxPoint x="400" y="563" as="targetPoint"/>
                    </mxGeometry>
                </mxCell>
                <mxCell id="26" value="" style="endArrow=classic;html=1;fontFamily=Helvetica;fontSize=12;fontColor=#D4D4D4;" edge="1" parent="1">
                    <mxGeometry width="50" height="50" relative="1" as="geometry">
                        <mxPoint x="400" y="600" as="sourcePoint"/>
                        <mxPoint x="200" y="600" as="targetPoint"/>
                    </mxGeometry>
                </mxCell>
                <mxCell id="27" value="" style="endArrow=none;html=1;fontSize=12;" edge="1" parent="1">
                    <mxGeometry width="50" height="50" relative="1" as="geometry">
                        <mxPoint x="400" y="440" as="sourcePoint"/>
                        <mxPoint x="475" y="439.5799999999999" as="targetPoint"/>
                    </mxGeometry>
                </mxCell>
                <mxCell id="28" value="Начало" style="ellipse;whiteSpace=wrap;html=1;" vertex="1" parent="1">
                    <mxGeometry x="280" y="1037" width="230" height="80" as="geometry"/>
                </mxCell>
                <mxCell id="32" style="edgeStyle=none;html=1;fontFamily=Helvetica;fontSize=12;fontColor=#D4D4D4;" edge="1" parent="1" source="29" target="31">
                    <mxGeometry relative="1" as="geometry"/>
                </mxCell>
                <mxCell id="29" value="&lt;div style=&quot;line-height: 22px&quot;&gt;&lt;font color=&quot;#d4d4d4&quot;&gt;endArray =&amp;nbsp;function&amp;nbsp;SecondArray&lt;/font&gt;&lt;/div&gt;" style="rounded=1;whiteSpace=wrap;html=1;fontSize=12;strokeWidth=1;fontFamily=Helvetica;" vertex="1" parent="1">
                    <mxGeometry x="85" y="754" width="230" height="60" as="geometry"/>
                </mxCell>
                <mxCell id="31" value="function PrintArray (EndArray)" style="shape=document;whiteSpace=wrap;html=1;boundedLbl=1;fontSize=12;fontColor=#D4D4D4;strokeWidth=1;fontFamily=Helvetica;" vertex="1" parent="1">
                    <mxGeometry x="85" y="880" width="225" height="80" as="geometry"/>
                </mxCell>
                <mxCell id="34" value="" style="endArrow=none;html=1;fontFamily=Helvetica;fontSize=12;fontColor=#D4D4D4;" edge="1" parent="1">
                    <mxGeometry width="50" height="50" relative="1" as="geometry">
                        <mxPoint x="200" y="1000" as="sourcePoint"/>
                        <mxPoint x="200" y="960" as="targetPoint"/>
                    </mxGeometry>
                </mxCell>
                <mxCell id="35" value="" style="endArrow=none;html=1;fontFamily=Helvetica;fontSize=12;fontColor=#D4D4D4;" edge="1" parent="1">
                    <mxGeometry width="50" height="50" relative="1" as="geometry">
                        <mxPoint x="200" y="1000" as="sourcePoint"/>
                        <mxPoint x="780" y="1000" as="targetPoint"/>
                    </mxGeometry>
                </mxCell>
                <mxCell id="36" value="" style="endArrow=classic;html=1;fontFamily=Helvetica;fontSize=12;fontColor=#D4D4D4;" edge="1" parent="1">
                    <mxGeometry width="50" height="50" relative="1" as="geometry">
                        <mxPoint x="400" y="1000" as="sourcePoint"/>
                        <mxPoint x="399.5" y="1037" as="targetPoint"/>
                    </mxGeometry>
                </mxCell>
                <mxCell id="37" value="" style="endArrow=none;html=1;fontFamily=Helvetica;fontSize=12;fontColor=#D4D4D4;" edge="1" parent="1">
                    <mxGeometry width="50" height="50" relative="1" as="geometry">
                        <mxPoint x="781" y="1000" as="sourcePoint"/>
                        <mxPoint x="781" y="440" as="targetPoint"/>
                    </mxGeometry>
                </mxCell>
            </root>
        </mxGraphModel>
    </diagram>
    <diagram id="SVhvOt_IBKHk34X_nSXc" name="Функция NewArray">
        <mxGraphModel dx="1118" dy="566" grid="1" gridSize="10" guides="1" tooltips="1" connect="1" arrows="1" fold="1" page="1" pageScale="1" pageWidth="827" pageHeight="1169" math="0" shadow="0">
            <root>
                <mxCell id="l9CJFw65TUi4HOLfh_gL-0"/>
                <mxCell id="l9CJFw65TUi4HOLfh_gL-1" parent="l9CJFw65TUi4HOLfh_gL-0"/>
                <mxCell id="EFW_bGPORMAFcHfHcMFv-0" value="Функция NewArray" style="text;strokeColor=none;fillColor=none;html=1;fontSize=16;fontStyle=1;verticalAlign=middle;align=center;strokeWidth=1;" vertex="1" parent="l9CJFw65TUi4HOLfh_gL-1">
                    <mxGeometry x="220" y="10" width="340" height="40" as="geometry"/>
                </mxCell>
                <mxCell id="9xa2Xw9fynLu96EXFlLq-0" style="edgeStyle=none;html=1;entryX=0.5;entryY=0;entryDx=0;entryDy=0;fontFamily=Helvetica;fontSize=12;fontColor=#D4D4D4;" edge="1" parent="l9CJFw65TUi4HOLfh_gL-1" source="EFW_bGPORMAFcHfHcMFv-1" target="wEqXWvljU63eZtkPPBqi-0">
                    <mxGeometry relative="1" as="geometry"/>
                </mxCell>
                <mxCell id="EFW_bGPORMAFcHfHcMFv-1" value="Начало" style="ellipse;whiteSpace=wrap;html=1;" vertex="1" parent="l9CJFw65TUi4HOLfh_gL-1">
                    <mxGeometry x="280" y="60" width="230" height="80" as="geometry"/>
                </mxCell>
                <mxCell id="9xa2Xw9fynLu96EXFlLq-3" style="edgeStyle=none;html=1;entryX=0.5;entryY=0;entryDx=0;entryDy=0;fontFamily=Helvetica;fontSize=12;fontColor=#D4D4D4;" edge="1" parent="l9CJFw65TUi4HOLfh_gL-1" source="wEqXWvljU63eZtkPPBqi-0" target="9xa2Xw9fynLu96EXFlLq-2">
                    <mxGeometry relative="1" as="geometry"/>
                </mxCell>
                <mxCell id="wEqXWvljU63eZtkPPBqi-0" value="&lt;div style=&quot;line-height: 22px&quot;&gt;&lt;font color=&quot;#d4d4d4&quot;&gt;size&lt;/font&gt;&lt;/div&gt;" style="rounded=1;whiteSpace=wrap;html=1;fontSize=12;strokeWidth=1;fontFamily=Helvetica;" vertex="1" parent="l9CJFw65TUi4HOLfh_gL-1">
                    <mxGeometry x="280" y="180" width="230" height="60" as="geometry"/>
                </mxCell>
                <mxCell id="NvJZ1S6olc5OVV01rOzW-7" style="edgeStyle=none;html=1;entryX=0.5;entryY=0;entryDx=0;entryDy=0;fontFamily=Helvetica;fontSize=12;fontColor=#D4D4D4;" edge="1" parent="l9CJFw65TUi4HOLfh_gL-1" source="9xa2Xw9fynLu96EXFlLq-2" target="NvJZ1S6olc5OVV01rOzW-0">
                    <mxGeometry relative="1" as="geometry"/>
                </mxCell>
                <mxCell id="9xa2Xw9fynLu96EXFlLq-2" value="i = 0" style="rounded=0;whiteSpace=wrap;html=1;labelBackgroundColor=none;fontFamily=Helvetica;fontSize=12;fontColor=#D4D4D4;strokeWidth=1;" vertex="1" parent="l9CJFw65TUi4HOLfh_gL-1">
                    <mxGeometry x="280" y="289" width="230" height="60" as="geometry"/>
                </mxCell>
                <mxCell id="9xa2Xw9fynLu96EXFlLq-4" value="&lt;div style=&quot;text-align: center&quot;&gt;&lt;span&gt;&lt;font face=&quot;helvetica&quot;&gt;Значение полученное из основной программы:&lt;/font&gt;&lt;/span&gt;&lt;/div&gt;" style="text;whiteSpace=wrap;html=1;fontSize=12;fontFamily=Helvetica;fontColor=#D4D4D4;" vertex="1" parent="l9CJFw65TUi4HOLfh_gL-1">
                    <mxGeometry x="100" y="195" width="160" height="35" as="geometry"/>
                </mxCell>
                <mxCell id="NvJZ1S6olc5OVV01rOzW-0" value="i &amp;lt; size" style="rhombus;whiteSpace=wrap;html=1;fontSize=12;strokeWidth=1;" vertex="1" parent="l9CJFw65TUi4HOLfh_gL-1">
                    <mxGeometry x="280" y="400" width="230" height="80" as="geometry"/>
                </mxCell>
                <mxCell id="NvJZ1S6olc5OVV01rOzW-1" value="" style="endArrow=none;html=1;fontSize=12;" edge="1" parent="l9CJFw65TUi4HOLfh_gL-1">
                    <mxGeometry width="50" height="50" relative="1" as="geometry">
                        <mxPoint x="200" y="440" as="sourcePoint"/>
                        <mxPoint x="280" y="439.5799999999999" as="targetPoint"/>
                    </mxGeometry>
                </mxCell>
                <mxCell id="NvJZ1S6olc5OVV01rOzW-2" value="" style="endArrow=none;html=1;fontSize=12;" edge="1" parent="l9CJFw65TUi4HOLfh_gL-1">
                    <mxGeometry width="50" height="50" relative="1" as="geometry">
                        <mxPoint x="510" y="440" as="sourcePoint"/>
                        <mxPoint x="590" y="439.5799999999999" as="targetPoint"/>
                    </mxGeometry>
                </mxCell>
                <mxCell id="NvJZ1S6olc5OVV01rOzW-3" value="" style="endArrow=classic;html=1;fontSize=12;" edge="1" parent="l9CJFw65TUi4HOLfh_gL-1">
                    <mxGeometry width="50" height="50" relative="1" as="geometry">
                        <mxPoint x="200" y="440" as="sourcePoint"/>
                        <mxPoint x="200" y="510" as="targetPoint"/>
                    </mxGeometry>
                </mxCell>
                <mxCell id="NvJZ1S6olc5OVV01rOzW-4" value="" style="endArrow=classic;html=1;fontSize=12;" edge="1" parent="l9CJFw65TUi4HOLfh_gL-1">
                    <mxGeometry width="50" height="50" relative="1" as="geometry">
                        <mxPoint x="590" y="440" as="sourcePoint"/>
                        <mxPoint x="590" y="509.9999999999999" as="targetPoint"/>
                    </mxGeometry>
                </mxCell>
                <mxCell id="NvJZ1S6olc5OVV01rOzW-5" value="Да" style="text;strokeColor=none;fillColor=none;html=1;fontSize=12;fontStyle=1;verticalAlign=middle;align=center;strokeWidth=1;" vertex="1" parent="l9CJFw65TUi4HOLfh_gL-1">
                    <mxGeometry x="214" y="400" width="66" height="40" as="geometry"/>
                </mxCell>
                <mxCell id="NvJZ1S6olc5OVV01rOzW-6" value="Нет" style="text;strokeColor=none;fillColor=none;html=1;fontSize=12;fontStyle=1;verticalAlign=middle;align=center;strokeWidth=1;" vertex="1" parent="l9CJFw65TUi4HOLfh_gL-1">
                    <mxGeometry x="520" y="400" width="66" height="40" as="geometry"/>
                </mxCell>
                <mxCell id="OpORHhwBnnAHbEZxzvkR-10" style="edgeStyle=none;html=1;entryX=0.5;entryY=0;entryDx=0;entryDy=0;fontFamily=Helvetica;fontSize=12;fontColor=#D4D4D4;" edge="1" parent="l9CJFw65TUi4HOLfh_gL-1" source="GYnTu8dTk6qWyoIY9teJ-0" target="OpORHhwBnnAHbEZxzvkR-9">
                    <mxGeometry relative="1" as="geometry"/>
                </mxCell>
                <mxCell id="GYnTu8dTk6qWyoIY9teJ-0" value="&lt;div style=&quot;line-height: 22px&quot;&gt;&lt;font color=&quot;#d4d4d4&quot;&gt;newArray = array&lt;/font&gt;&lt;/div&gt;" style="rounded=1;whiteSpace=wrap;html=1;fontSize=12;strokeWidth=1;fontFamily=Helvetica;" vertex="1" parent="l9CJFw65TUi4HOLfh_gL-1">
                    <mxGeometry x="474" y="510" width="230" height="60" as="geometry"/>
                </mxCell>
                <mxCell id="OpORHhwBnnAHbEZxzvkR-4" style="edgeStyle=none;html=1;fontFamily=Helvetica;fontSize=12;fontColor=#D4D4D4;entryX=0.5;entryY=0;entryDx=0;entryDy=0;" edge="1" parent="l9CJFw65TUi4HOLfh_gL-1" source="OpORHhwBnnAHbEZxzvkR-0" target="OpORHhwBnnAHbEZxzvkR-1">
                    <mxGeometry relative="1" as="geometry">
                        <mxPoint x="199" y="600" as="targetPoint"/>
                    </mxGeometry>
                </mxCell>
                <mxCell id="OpORHhwBnnAHbEZxzvkR-0" value="array [i]" style="shape=parallelogram;perimeter=parallelogramPerimeter;whiteSpace=wrap;html=1;fixedSize=1;fontSize=12;strokeWidth=1;" vertex="1" parent="l9CJFw65TUi4HOLfh_gL-1">
                    <mxGeometry x="84" y="510" width="230" height="60" as="geometry"/>
                </mxCell>
                <mxCell id="OpORHhwBnnAHbEZxzvkR-1" value="i = i +1" style="rounded=0;whiteSpace=wrap;html=1;labelBackgroundColor=none;fontFamily=Helvetica;fontSize=12;fontColor=#D4D4D4;strokeWidth=1;" vertex="1" parent="l9CJFw65TUi4HOLfh_gL-1">
                    <mxGeometry x="85" y="610" width="230" height="60" as="geometry"/>
                </mxCell>
                <mxCell id="OpORHhwBnnAHbEZxzvkR-2" value="" style="endArrow=none;html=1;fontFamily=Helvetica;fontSize=12;fontColor=#D4D4D4;" edge="1" parent="l9CJFw65TUi4HOLfh_gL-1">
                    <mxGeometry width="50" height="50" relative="1" as="geometry">
                        <mxPoint x="200" y="720" as="sourcePoint"/>
                        <mxPoint x="200" y="690" as="targetPoint"/>
                        <Array as="points">
                            <mxPoint x="200" y="670"/>
                        </Array>
                    </mxGeometry>
                </mxCell>
                <mxCell id="OpORHhwBnnAHbEZxzvkR-5" value="" style="endArrow=none;html=1;fontFamily=Helvetica;fontSize=12;fontColor=#D4D4D4;" edge="1" parent="l9CJFw65TUi4HOLfh_gL-1">
                    <mxGeometry width="50" height="50" relative="1" as="geometry">
                        <mxPoint x="40" y="720" as="sourcePoint"/>
                        <mxPoint x="200" y="720" as="targetPoint"/>
                    </mxGeometry>
                </mxCell>
                <mxCell id="OpORHhwBnnAHbEZxzvkR-6" value="" style="endArrow=none;html=1;fontFamily=Helvetica;fontSize=12;fontColor=#D4D4D4;" edge="1" parent="l9CJFw65TUi4HOLfh_gL-1">
                    <mxGeometry width="50" height="50" relative="1" as="geometry">
                        <mxPoint x="40" y="720" as="sourcePoint"/>
                        <mxPoint x="40" y="370" as="targetPoint"/>
                    </mxGeometry>
                </mxCell>
                <mxCell id="OpORHhwBnnAHbEZxzvkR-7" value="" style="endArrow=classic;html=1;fontFamily=Helvetica;fontSize=12;fontColor=#D4D4D4;" edge="1" parent="l9CJFw65TUi4HOLfh_gL-1">
                    <mxGeometry width="50" height="50" relative="1" as="geometry">
                        <mxPoint x="40" y="370" as="sourcePoint"/>
                        <mxPoint x="390" y="370" as="targetPoint"/>
                    </mxGeometry>
                </mxCell>
                <mxCell id="OpORHhwBnnAHbEZxzvkR-8" value="&lt;div style=&quot;text-align: center&quot;&gt;&lt;font face=&quot;helvetica&quot;&gt;Возвращаемое значение:&lt;/font&gt;&lt;/div&gt;" style="text;whiteSpace=wrap;html=1;fontSize=12;fontFamily=Helvetica;fontColor=#D4D4D4;" vertex="1" parent="l9CJFw65TUi4HOLfh_gL-1">
                    <mxGeometry x="628" y="471" width="160" height="35" as="geometry"/>
                </mxCell>
                <mxCell id="OpORHhwBnnAHbEZxzvkR-9" value="Конец" style="ellipse;whiteSpace=wrap;html=1;" vertex="1" parent="l9CJFw65TUi4HOLfh_gL-1">
                    <mxGeometry x="474" y="610" width="230" height="80" as="geometry"/>
                </mxCell>
            </root>
        </mxGraphModel>
    </diagram>
    <diagram id="Jy-y9I9CoZWa6eQO9eDZ" name="Функция SecondArray">
        <mxGraphModel dx="1118" dy="566" grid="1" gridSize="10" guides="1" tooltips="1" connect="1" arrows="1" fold="1" page="1" pageScale="1" pageWidth="827" pageHeight="1169" math="0" shadow="0">
            <root>
                <mxCell id="fTaSg8ONXIyRTZyxcID3-0"/>
                <mxCell id="fTaSg8ONXIyRTZyxcID3-1" parent="fTaSg8ONXIyRTZyxcID3-0"/>
                <mxCell id="_v-jEZqObBVzv5hWyRoN-0" value="Функция SecondArray" style="text;strokeColor=none;fillColor=none;html=1;fontSize=16;fontStyle=1;verticalAlign=middle;align=center;strokeWidth=1;" vertex="1" parent="fTaSg8ONXIyRTZyxcID3-1">
                    <mxGeometry x="220" y="10" width="340" height="40" as="geometry"/>
                </mxCell>
                <mxCell id="_v-jEZqObBVzv5hWyRoN-1" style="edgeStyle=none;html=1;entryX=0.5;entryY=0;entryDx=0;entryDy=0;fontFamily=Helvetica;fontSize=12;fontColor=#D4D4D4;" edge="1" parent="fTaSg8ONXIyRTZyxcID3-1" source="_v-jEZqObBVzv5hWyRoN-2" target="_v-jEZqObBVzv5hWyRoN-4">
                    <mxGeometry relative="1" as="geometry"/>
                </mxCell>
                <mxCell id="_v-jEZqObBVzv5hWyRoN-2" value="Начало" style="ellipse;whiteSpace=wrap;html=1;" vertex="1" parent="fTaSg8ONXIyRTZyxcID3-1">
                    <mxGeometry x="280" y="60" width="230" height="80" as="geometry"/>
                </mxCell>
                <mxCell id="_v-jEZqObBVzv5hWyRoN-3" style="edgeStyle=none;html=1;entryX=0.5;entryY=0;entryDx=0;entryDy=0;fontFamily=Helvetica;fontSize=12;fontColor=#D4D4D4;" edge="1" parent="fTaSg8ONXIyRTZyxcID3-1" source="_v-jEZqObBVzv5hWyRoN-4" target="_v-jEZqObBVzv5hWyRoN-6">
                    <mxGeometry relative="1" as="geometry"/>
                </mxCell>
                <mxCell id="_v-jEZqObBVzv5hWyRoN-4" value="&lt;div style=&quot;line-height: 22px&quot;&gt;&lt;font color=&quot;#d4d4d4&quot;&gt;array1 = newArray&lt;/font&gt;&lt;/div&gt;" style="rounded=1;whiteSpace=wrap;html=1;fontSize=12;strokeWidth=1;fontFamily=Helvetica;" vertex="1" parent="fTaSg8ONXIyRTZyxcID3-1">
                    <mxGeometry x="280" y="180" width="230" height="60" as="geometry"/>
                </mxCell>
                <mxCell id="_v-jEZqObBVzv5hWyRoN-5" style="edgeStyle=none;html=1;entryX=0.5;entryY=0;entryDx=0;entryDy=0;fontFamily=Helvetica;fontSize=12;fontColor=#D4D4D4;" edge="1" parent="fTaSg8ONXIyRTZyxcID3-1" source="_v-jEZqObBVzv5hWyRoN-6" target="_v-jEZqObBVzv5hWyRoN-8">
                    <mxGeometry relative="1" as="geometry"/>
                </mxCell>
                <mxCell id="_v-jEZqObBVzv5hWyRoN-6" value="count = 0&lt;br&gt;i = 0" style="rounded=0;whiteSpace=wrap;html=1;labelBackgroundColor=none;fontFamily=Helvetica;fontSize=12;fontColor=#D4D4D4;strokeWidth=1;" vertex="1" parent="fTaSg8ONXIyRTZyxcID3-1">
                    <mxGeometry x="280" y="289" width="230" height="60" as="geometry"/>
                </mxCell>
                <mxCell id="_v-jEZqObBVzv5hWyRoN-7" value="&lt;div style=&quot;text-align: center&quot;&gt;&lt;span&gt;&lt;font face=&quot;helvetica&quot;&gt;Значение переданное из основной программы:&lt;/font&gt;&lt;/span&gt;&lt;/div&gt;" style="text;whiteSpace=wrap;html=1;fontSize=12;fontFamily=Helvetica;fontColor=#D4D4D4;" vertex="1" parent="fTaSg8ONXIyRTZyxcID3-1">
                    <mxGeometry x="100" y="195" width="160" height="35" as="geometry"/>
                </mxCell>
                <mxCell id="_v-jEZqObBVzv5hWyRoN-8" value="i &amp;lt; array1.Length &lt;br&gt;(длины массива 1)" style="rhombus;whiteSpace=wrap;html=1;fontSize=12;strokeWidth=1;" vertex="1" parent="fTaSg8ONXIyRTZyxcID3-1">
                    <mxGeometry x="280" y="400" width="230" height="80" as="geometry"/>
                </mxCell>
                <mxCell id="_v-jEZqObBVzv5hWyRoN-9" value="" style="endArrow=none;html=1;fontSize=12;" edge="1" parent="fTaSg8ONXIyRTZyxcID3-1">
                    <mxGeometry width="50" height="50" relative="1" as="geometry">
                        <mxPoint x="200" y="440" as="sourcePoint"/>
                        <mxPoint x="280" y="439.5799999999999" as="targetPoint"/>
                    </mxGeometry>
                </mxCell>
                <mxCell id="_v-jEZqObBVzv5hWyRoN-10" value="" style="endArrow=none;html=1;fontSize=12;" edge="1" parent="fTaSg8ONXIyRTZyxcID3-1">
                    <mxGeometry width="50" height="50" relative="1" as="geometry">
                        <mxPoint x="510" y="440" as="sourcePoint"/>
                        <mxPoint x="590" y="439.5799999999999" as="targetPoint"/>
                    </mxGeometry>
                </mxCell>
                <mxCell id="_v-jEZqObBVzv5hWyRoN-11" value="" style="endArrow=classic;html=1;fontSize=12;" edge="1" parent="fTaSg8ONXIyRTZyxcID3-1">
                    <mxGeometry width="50" height="50" relative="1" as="geometry">
                        <mxPoint x="200" y="440" as="sourcePoint"/>
                        <mxPoint x="200" y="510" as="targetPoint"/>
                    </mxGeometry>
                </mxCell>
                <mxCell id="_v-jEZqObBVzv5hWyRoN-12" value="" style="endArrow=classic;html=1;fontSize=12;" edge="1" parent="fTaSg8ONXIyRTZyxcID3-1">
                    <mxGeometry width="50" height="50" relative="1" as="geometry">
                        <mxPoint x="590" y="440" as="sourcePoint"/>
                        <mxPoint x="590" y="510" as="targetPoint"/>
                    </mxGeometry>
                </mxCell>
                <mxCell id="_v-jEZqObBVzv5hWyRoN-13" value="Да" style="text;strokeColor=none;fillColor=none;html=1;fontSize=12;fontStyle=1;verticalAlign=middle;align=center;strokeWidth=1;" vertex="1" parent="fTaSg8ONXIyRTZyxcID3-1">
                    <mxGeometry x="214" y="400" width="66" height="40" as="geometry"/>
                </mxCell>
                <mxCell id="_v-jEZqObBVzv5hWyRoN-14" value="Нет" style="text;strokeColor=none;fillColor=none;html=1;fontSize=12;fontStyle=1;verticalAlign=middle;align=center;strokeWidth=1;" vertex="1" parent="fTaSg8ONXIyRTZyxcID3-1">
                    <mxGeometry x="520" y="400" width="66" height="40" as="geometry"/>
                </mxCell>
                <mxCell id="_v-jEZqObBVzv5hWyRoN-15" style="edgeStyle=none;html=1;entryX=0.5;entryY=0;entryDx=0;entryDy=0;fontFamily=Helvetica;fontSize=12;fontColor=#D4D4D4;" edge="1" parent="fTaSg8ONXIyRTZyxcID3-1" source="_v-jEZqObBVzv5hWyRoN-16" target="_v-jEZqObBVzv5hWyRoN-25">
                    <mxGeometry relative="1" as="geometry"/>
                </mxCell>
                <mxCell id="_v-jEZqObBVzv5hWyRoN-16" value="&lt;div style=&quot;line-height: 22px&quot;&gt;&lt;font color=&quot;#d4d4d4&quot;&gt;array2 = endArray&lt;/font&gt;&lt;/div&gt;" style="rounded=1;whiteSpace=wrap;html=1;fontSize=12;strokeWidth=1;fontFamily=Helvetica;" vertex="1" parent="fTaSg8ONXIyRTZyxcID3-1">
                    <mxGeometry x="474" y="510" width="230" height="60" as="geometry"/>
                </mxCell>
                <mxCell id="5KVNlIcGTP2gBGxyF6vY-7" style="edgeStyle=none;html=1;entryX=0.5;entryY=0;entryDx=0;entryDy=0;fontFamily=Helvetica;fontSize=12;fontColor=#D4D4D4;" edge="1" parent="fTaSg8ONXIyRTZyxcID3-1" source="_v-jEZqObBVzv5hWyRoN-19" target="5KVNlIcGTP2gBGxyF6vY-5">
                    <mxGeometry relative="1" as="geometry"/>
                </mxCell>
                <mxCell id="_v-jEZqObBVzv5hWyRoN-19" value="array2[count] = array1[i]&lt;br&gt;count = count +1" style="rounded=0;whiteSpace=wrap;html=1;labelBackgroundColor=none;fontFamily=Helvetica;fontSize=12;fontColor=#D4D4D4;strokeWidth=1;" vertex="1" parent="fTaSg8ONXIyRTZyxcID3-1">
                    <mxGeometry x="85" y="730" width="230" height="60" as="geometry"/>
                </mxCell>
                <mxCell id="_v-jEZqObBVzv5hWyRoN-20" value="" style="endArrow=none;html=1;fontFamily=Helvetica;fontSize=12;fontColor=#D4D4D4;" edge="1" parent="fTaSg8ONXIyRTZyxcID3-1">
                    <mxGeometry width="50" height="50" relative="1" as="geometry">
                        <mxPoint x="199.5" y="940" as="sourcePoint"/>
                        <mxPoint x="199.5" y="910" as="targetPoint"/>
                        <Array as="points">
                            <mxPoint x="199.5" y="890"/>
                        </Array>
                    </mxGeometry>
                </mxCell>
                <mxCell id="_v-jEZqObBVzv5hWyRoN-21" value="" style="endArrow=none;html=1;fontFamily=Helvetica;fontSize=12;fontColor=#D4D4D4;" edge="1" parent="fTaSg8ONXIyRTZyxcID3-1">
                    <mxGeometry width="50" height="50" relative="1" as="geometry">
                        <mxPoint x="40" y="940" as="sourcePoint"/>
                        <mxPoint x="200" y="940" as="targetPoint"/>
                    </mxGeometry>
                </mxCell>
                <mxCell id="_v-jEZqObBVzv5hWyRoN-22" value="" style="endArrow=none;html=1;fontFamily=Helvetica;fontSize=12;fontColor=#D4D4D4;" edge="1" parent="fTaSg8ONXIyRTZyxcID3-1">
                    <mxGeometry width="50" height="50" relative="1" as="geometry">
                        <mxPoint x="40" y="940" as="sourcePoint"/>
                        <mxPoint x="40" y="370" as="targetPoint"/>
                    </mxGeometry>
                </mxCell>
                <mxCell id="_v-jEZqObBVzv5hWyRoN-23" value="" style="endArrow=classic;html=1;fontFamily=Helvetica;fontSize=12;fontColor=#D4D4D4;" edge="1" parent="fTaSg8ONXIyRTZyxcID3-1">
                    <mxGeometry width="50" height="50" relative="1" as="geometry">
                        <mxPoint x="40" y="370" as="sourcePoint"/>
                        <mxPoint x="390" y="370" as="targetPoint"/>
                    </mxGeometry>
                </mxCell>
                <mxCell id="_v-jEZqObBVzv5hWyRoN-24" value="&lt;div style=&quot;text-align: center&quot;&gt;&lt;font face=&quot;helvetica&quot;&gt;Возвращаемое значение:&lt;/font&gt;&lt;/div&gt;" style="text;whiteSpace=wrap;html=1;fontSize=12;fontFamily=Helvetica;fontColor=#D4D4D4;" vertex="1" parent="fTaSg8ONXIyRTZyxcID3-1">
                    <mxGeometry x="628" y="471" width="160" height="35" as="geometry"/>
                </mxCell>
                <mxCell id="_v-jEZqObBVzv5hWyRoN-25" value="Конец" style="ellipse;whiteSpace=wrap;html=1;" vertex="1" parent="fTaSg8ONXIyRTZyxcID3-1">
                    <mxGeometry x="474" y="610" width="230" height="80" as="geometry"/>
                </mxCell>
                <mxCell id="5KVNlIcGTP2gBGxyF6vY-4" style="edgeStyle=none;html=1;entryX=0.5;entryY=0;entryDx=0;entryDy=0;fontFamily=Helvetica;fontSize=12;fontColor=#D4D4D4;" edge="1" parent="fTaSg8ONXIyRTZyxcID3-1" source="5KVNlIcGTP2gBGxyF6vY-0" target="5KVNlIcGTP2gBGxyF6vY-2">
                    <mxGeometry relative="1" as="geometry"/>
                </mxCell>
                <mxCell id="5KVNlIcGTP2gBGxyF6vY-0" value="array1[i].Length &amp;lt;=3&lt;br&gt;(длина элемента массива 1)" style="rhombus;whiteSpace=wrap;html=1;fontSize=12;strokeWidth=1;" vertex="1" parent="fTaSg8ONXIyRTZyxcID3-1">
                    <mxGeometry x="85" y="510" width="230" height="80" as="geometry"/>
                </mxCell>
                <mxCell id="5KVNlIcGTP2gBGxyF6vY-1" value="Да" style="text;strokeColor=none;fillColor=none;html=1;fontSize=12;fontStyle=1;verticalAlign=middle;align=center;strokeWidth=1;" vertex="1" parent="fTaSg8ONXIyRTZyxcID3-1">
                    <mxGeometry x="194" y="585" width="66" height="40" as="geometry"/>
                </mxCell>
                <mxCell id="5KVNlIcGTP2gBGxyF6vY-6" style="edgeStyle=none;html=1;entryX=0.5;entryY=0;entryDx=0;entryDy=0;fontFamily=Helvetica;fontSize=12;fontColor=#D4D4D4;" edge="1" parent="fTaSg8ONXIyRTZyxcID3-1" source="5KVNlIcGTP2gBGxyF6vY-2" target="_v-jEZqObBVzv5hWyRoN-19">
                    <mxGeometry relative="1" as="geometry"/>
                </mxCell>
                <mxCell id="5KVNlIcGTP2gBGxyF6vY-2" value="&lt;div style=&quot;line-height: 22px&quot;&gt;&lt;div style=&quot;line-height: 22px&quot;&gt;&lt;font color=&quot;#d4d4d4&quot; style=&quot;font-size: 12px&quot;&gt;Array.Resize(array2.Length + 1)&lt;/font&gt;&lt;/div&gt;&lt;div style=&quot;line-height: 22px&quot;&gt;&lt;font color=&quot;#d4d4d4&quot; style=&quot;font-size: 12px&quot;&gt;(Добавление элемента в конец пустого массива 2)&lt;/font&gt;&lt;/div&gt;&lt;/div&gt;" style="rounded=1;whiteSpace=wrap;html=1;fontSize=12;strokeWidth=1;fontFamily=Helvetica;" vertex="1" parent="fTaSg8ONXIyRTZyxcID3-1">
                    <mxGeometry x="85" y="630" width="230" height="60" as="geometry"/>
                </mxCell>
                <mxCell id="5KVNlIcGTP2gBGxyF6vY-5" value="i = i +1" style="rounded=0;whiteSpace=wrap;html=1;labelBackgroundColor=none;fontFamily=Helvetica;fontSize=12;fontColor=#D4D4D4;strokeWidth=1;" vertex="1" parent="fTaSg8ONXIyRTZyxcID3-1">
                    <mxGeometry x="85" y="830" width="230" height="60" as="geometry"/>
                </mxCell>
                <mxCell id="wLVdWCqMhAsdrj7axZSK-0" value="" style="endArrow=none;html=1;fontFamily=Helvetica;fontSize=12;fontColor=#D4D4D4;" edge="1" parent="fTaSg8ONXIyRTZyxcID3-1">
                    <mxGeometry width="50" height="50" relative="1" as="geometry">
                        <mxPoint x="315" y="550" as="sourcePoint"/>
                        <mxPoint x="360" y="550" as="targetPoint"/>
                    </mxGeometry>
                </mxCell>
                <mxCell id="wLVdWCqMhAsdrj7axZSK-1" value="Нет" style="text;strokeColor=none;fillColor=none;html=1;fontSize=12;fontStyle=1;verticalAlign=middle;align=center;strokeWidth=1;" vertex="1" parent="fTaSg8ONXIyRTZyxcID3-1">
                    <mxGeometry x="300" y="510" width="66" height="40" as="geometry"/>
                </mxCell>
                <mxCell id="wLVdWCqMhAsdrj7axZSK-2" value="" style="endArrow=none;html=1;fontFamily=Helvetica;fontSize=12;fontColor=#D4D4D4;" edge="1" parent="fTaSg8ONXIyRTZyxcID3-1">
                    <mxGeometry width="50" height="50" relative="1" as="geometry">
                        <mxPoint x="365" y="810" as="sourcePoint"/>
                        <mxPoint x="365" y="550" as="targetPoint"/>
                    </mxGeometry>
                </mxCell>
                <mxCell id="wLVdWCqMhAsdrj7axZSK-3" value="" style="endArrow=classic;html=1;fontFamily=Helvetica;fontSize=12;fontColor=#D4D4D4;" edge="1" parent="fTaSg8ONXIyRTZyxcID3-1">
                    <mxGeometry width="50" height="50" relative="1" as="geometry">
                        <mxPoint x="364" y="810" as="sourcePoint"/>
                        <mxPoint x="200" y="810" as="targetPoint"/>
                    </mxGeometry>
                </mxCell>
            </root>
        </mxGraphModel>
    </diagram>
    <diagram id="I5pFDZfYKk123YlzUvl8" name="Void - Функция PrintArray">
        <mxGraphModel dx="1118" dy="566" grid="1" gridSize="10" guides="1" tooltips="1" connect="1" arrows="1" fold="1" page="1" pageScale="1" pageWidth="827" pageHeight="1169" math="0" shadow="0">
            <root>
                <mxCell id="21vrKKzbx5e7DE5n5qq_-0"/>
                <mxCell id="21vrKKzbx5e7DE5n5qq_-1" parent="21vrKKzbx5e7DE5n5qq_-0"/>
                <mxCell id="BEXLIhYubuLqRLk8NKYp-0" value="Void - Функция PrintArray" style="text;strokeColor=none;fillColor=none;html=1;fontSize=16;fontStyle=1;verticalAlign=middle;align=center;strokeWidth=1;" vertex="1" parent="21vrKKzbx5e7DE5n5qq_-1">
                    <mxGeometry x="220" y="10" width="340" height="40" as="geometry"/>
                </mxCell>
                <mxCell id="BEXLIhYubuLqRLk8NKYp-1" style="edgeStyle=none;html=1;entryX=0.5;entryY=0;entryDx=0;entryDy=0;fontFamily=Helvetica;fontSize=12;fontColor=#D4D4D4;" edge="1" parent="21vrKKzbx5e7DE5n5qq_-1" source="BEXLIhYubuLqRLk8NKYp-2" target="BEXLIhYubuLqRLk8NKYp-4">
                    <mxGeometry relative="1" as="geometry"/>
                </mxCell>
                <mxCell id="BEXLIhYubuLqRLk8NKYp-2" value="Начало" style="ellipse;whiteSpace=wrap;html=1;" vertex="1" parent="21vrKKzbx5e7DE5n5qq_-1">
                    <mxGeometry x="280" y="60" width="230" height="80" as="geometry"/>
                </mxCell>
                <mxCell id="BEXLIhYubuLqRLk8NKYp-3" style="edgeStyle=none;html=1;entryX=0.5;entryY=0;entryDx=0;entryDy=0;fontFamily=Helvetica;fontSize=12;fontColor=#D4D4D4;" edge="1" parent="21vrKKzbx5e7DE5n5qq_-1" source="BEXLIhYubuLqRLk8NKYp-4" target="BEXLIhYubuLqRLk8NKYp-6">
                    <mxGeometry relative="1" as="geometry"/>
                </mxCell>
                <mxCell id="BEXLIhYubuLqRLk8NKYp-4" value="&lt;div style=&quot;line-height: 22px&quot;&gt;&lt;font color=&quot;#d4d4d4&quot;&gt;array = newArray&amp;nbsp;&lt;/font&gt;&lt;/div&gt;&lt;div style=&quot;line-height: 22px&quot;&gt;&lt;font color=&quot;#d4d4d4&quot;&gt;или&amp;nbsp;&lt;/font&gt;&lt;/div&gt;&lt;span style=&quot;color: rgb(212 , 212 , 212)&quot;&gt;array =&amp;nbsp;&lt;/span&gt;&lt;span style=&quot;color: rgb(212 , 212 , 212)&quot;&gt;endArray&lt;/span&gt;&lt;span style=&quot;color: rgb(212 , 212 , 212)&quot;&gt;&lt;br&gt;&lt;/span&gt;" style="rounded=1;whiteSpace=wrap;html=1;fontSize=12;strokeWidth=1;fontFamily=Helvetica;" vertex="1" parent="21vrKKzbx5e7DE5n5qq_-1">
                    <mxGeometry x="280" y="180" width="230" height="60" as="geometry"/>
                </mxCell>
                <mxCell id="BEXLIhYubuLqRLk8NKYp-5" style="edgeStyle=none;html=1;entryX=0.5;entryY=0;entryDx=0;entryDy=0;fontFamily=Helvetica;fontSize=12;fontColor=#D4D4D4;" edge="1" parent="21vrKKzbx5e7DE5n5qq_-1" source="BEXLIhYubuLqRLk8NKYp-6" target="BEXLIhYubuLqRLk8NKYp-8">
                    <mxGeometry relative="1" as="geometry"/>
                </mxCell>
                <mxCell id="BEXLIhYubuLqRLk8NKYp-6" value="i = 0" style="rounded=0;whiteSpace=wrap;html=1;labelBackgroundColor=none;fontFamily=Helvetica;fontSize=12;fontColor=#D4D4D4;strokeWidth=1;" vertex="1" parent="21vrKKzbx5e7DE5n5qq_-1">
                    <mxGeometry x="280" y="289" width="230" height="60" as="geometry"/>
                </mxCell>
                <mxCell id="BEXLIhYubuLqRLk8NKYp-7" value="&lt;div style=&quot;text-align: center&quot;&gt;&lt;span&gt;&lt;font face=&quot;helvetica&quot;&gt;Значение полученное из основной программы:&lt;/font&gt;&lt;/span&gt;&lt;/div&gt;" style="text;whiteSpace=wrap;html=1;fontSize=12;fontFamily=Helvetica;fontColor=#D4D4D4;" vertex="1" parent="21vrKKzbx5e7DE5n5qq_-1">
                    <mxGeometry x="100" y="195" width="160" height="35" as="geometry"/>
                </mxCell>
                <mxCell id="BEXLIhYubuLqRLk8NKYp-8" value="i &amp;lt; array.Lenght&lt;br&gt;(длина массива)" style="rhombus;whiteSpace=wrap;html=1;fontSize=12;strokeWidth=1;" vertex="1" parent="21vrKKzbx5e7DE5n5qq_-1">
                    <mxGeometry x="280" y="400" width="230" height="80" as="geometry"/>
                </mxCell>
                <mxCell id="BEXLIhYubuLqRLk8NKYp-9" value="" style="endArrow=none;html=1;fontSize=12;" edge="1" parent="21vrKKzbx5e7DE5n5qq_-1">
                    <mxGeometry width="50" height="50" relative="1" as="geometry">
                        <mxPoint x="200" y="440" as="sourcePoint"/>
                        <mxPoint x="280" y="439.5799999999999" as="targetPoint"/>
                    </mxGeometry>
                </mxCell>
                <mxCell id="BEXLIhYubuLqRLk8NKYp-10" value="" style="endArrow=none;html=1;fontSize=12;" edge="1" parent="21vrKKzbx5e7DE5n5qq_-1">
                    <mxGeometry width="50" height="50" relative="1" as="geometry">
                        <mxPoint x="510" y="440" as="sourcePoint"/>
                        <mxPoint x="590" y="439.5799999999999" as="targetPoint"/>
                    </mxGeometry>
                </mxCell>
                <mxCell id="BEXLIhYubuLqRLk8NKYp-11" value="" style="endArrow=classic;html=1;fontSize=12;" edge="1" parent="21vrKKzbx5e7DE5n5qq_-1">
                    <mxGeometry width="50" height="50" relative="1" as="geometry">
                        <mxPoint x="200" y="440" as="sourcePoint"/>
                        <mxPoint x="200" y="510" as="targetPoint"/>
                    </mxGeometry>
                </mxCell>
                <mxCell id="BEXLIhYubuLqRLk8NKYp-12" value="" style="endArrow=classic;html=1;fontSize=12;" edge="1" parent="21vrKKzbx5e7DE5n5qq_-1">
                    <mxGeometry width="50" height="50" relative="1" as="geometry">
                        <mxPoint x="590" y="440" as="sourcePoint"/>
                        <mxPoint x="590" y="510" as="targetPoint"/>
                    </mxGeometry>
                </mxCell>
                <mxCell id="BEXLIhYubuLqRLk8NKYp-13" value="Да" style="text;strokeColor=none;fillColor=none;html=1;fontSize=12;fontStyle=1;verticalAlign=middle;align=center;strokeWidth=1;" vertex="1" parent="21vrKKzbx5e7DE5n5qq_-1">
                    <mxGeometry x="214" y="400" width="66" height="40" as="geometry"/>
                </mxCell>
                <mxCell id="BEXLIhYubuLqRLk8NKYp-14" value="Нет" style="text;strokeColor=none;fillColor=none;html=1;fontSize=12;fontStyle=1;verticalAlign=middle;align=center;strokeWidth=1;" vertex="1" parent="21vrKKzbx5e7DE5n5qq_-1">
                    <mxGeometry x="520" y="400" width="66" height="40" as="geometry"/>
                </mxCell>
                <mxCell id="BEXLIhYubuLqRLk8NKYp-17" style="edgeStyle=none;html=1;fontFamily=Helvetica;fontSize=12;fontColor=#D4D4D4;entryX=0.5;entryY=0;entryDx=0;entryDy=0;" edge="1" parent="21vrKKzbx5e7DE5n5qq_-1" target="BEXLIhYubuLqRLk8NKYp-19">
                    <mxGeometry relative="1" as="geometry">
                        <mxPoint x="199" y="600" as="targetPoint"/>
                        <mxPoint x="200" y="560" as="sourcePoint"/>
                    </mxGeometry>
                </mxCell>
                <mxCell id="BEXLIhYubuLqRLk8NKYp-19" value="i = i +1" style="rounded=0;whiteSpace=wrap;html=1;labelBackgroundColor=none;fontFamily=Helvetica;fontSize=12;fontColor=#D4D4D4;strokeWidth=1;" vertex="1" parent="21vrKKzbx5e7DE5n5qq_-1">
                    <mxGeometry x="85" y="610" width="230" height="60" as="geometry"/>
                </mxCell>
                <mxCell id="BEXLIhYubuLqRLk8NKYp-20" value="" style="endArrow=none;html=1;fontFamily=Helvetica;fontSize=12;fontColor=#D4D4D4;" edge="1" parent="21vrKKzbx5e7DE5n5qq_-1">
                    <mxGeometry width="50" height="50" relative="1" as="geometry">
                        <mxPoint x="200" y="720" as="sourcePoint"/>
                        <mxPoint x="200" y="690" as="targetPoint"/>
                        <Array as="points">
                            <mxPoint x="200" y="670"/>
                        </Array>
                    </mxGeometry>
                </mxCell>
                <mxCell id="BEXLIhYubuLqRLk8NKYp-21" value="" style="endArrow=none;html=1;fontFamily=Helvetica;fontSize=12;fontColor=#D4D4D4;" edge="1" parent="21vrKKzbx5e7DE5n5qq_-1">
                    <mxGeometry width="50" height="50" relative="1" as="geometry">
                        <mxPoint x="40" y="720" as="sourcePoint"/>
                        <mxPoint x="200" y="720" as="targetPoint"/>
                    </mxGeometry>
                </mxCell>
                <mxCell id="BEXLIhYubuLqRLk8NKYp-22" value="" style="endArrow=none;html=1;fontFamily=Helvetica;fontSize=12;fontColor=#D4D4D4;" edge="1" parent="21vrKKzbx5e7DE5n5qq_-1">
                    <mxGeometry width="50" height="50" relative="1" as="geometry">
                        <mxPoint x="40" y="720" as="sourcePoint"/>
                        <mxPoint x="40" y="370" as="targetPoint"/>
                    </mxGeometry>
                </mxCell>
                <mxCell id="BEXLIhYubuLqRLk8NKYp-23" value="" style="endArrow=classic;html=1;fontFamily=Helvetica;fontSize=12;fontColor=#D4D4D4;" edge="1" parent="21vrKKzbx5e7DE5n5qq_-1">
                    <mxGeometry width="50" height="50" relative="1" as="geometry">
                        <mxPoint x="40" y="370" as="sourcePoint"/>
                        <mxPoint x="390" y="370" as="targetPoint"/>
                    </mxGeometry>
                </mxCell>
                <mxCell id="BEXLIhYubuLqRLk8NKYp-25" value="Конец" style="ellipse;whiteSpace=wrap;html=1;" vertex="1" parent="21vrKKzbx5e7DE5n5qq_-1">
                    <mxGeometry x="474" y="511" width="230" height="80" as="geometry"/>
                </mxCell>
                <mxCell id="v2UGYYphRJ3l57RN8JbB-0" value="&lt;span style=&quot;color: rgb(240 , 240 , 240)&quot;&gt;array [i]&lt;/span&gt;" style="shape=document;whiteSpace=wrap;html=1;boundedLbl=1;labelBackgroundColor=none;fontFamily=Helvetica;fontSize=12;fontColor=#D4D4D4;strokeWidth=1;" vertex="1" parent="21vrKKzbx5e7DE5n5qq_-1">
                    <mxGeometry x="82.5" y="515" width="235" height="70" as="geometry"/>
                </mxCell>
            </root>
        </mxGraphModel>
    </diagram>
</mxfile>